<svg width="611" height="601" xmlns="http://www.w3.org/2000/svg" xmlns:xlink="http://www.w3.org/1999/xlink" xml:space="preserve" overflow="hidden"><g transform="translate(-1990 -953)"><text font-family="Aptos,Aptos_MSFontService,sans-serif" font-weight="400" font-size="64" transform="matrix(1 0 0 1 2336.54 1138)">O</text><path d="M2376.5 1136.5 2479.17 1239.1" stroke="#000000" stroke-width="6.875" stroke-miterlimit="8" fill="none" fill-rule="evenodd"/><path d="M0 0 87.4139 137.862" stroke="#000000" stroke-width="6.875" stroke-miterlimit="8" fill="none" fill-rule="evenodd" transform="matrix(-1 0 0 1 2479.91 1238.5)"/><path d="M0 0 202.374 0.000360892" stroke="#000000" stroke-width="6.875" stroke-miterlimit="8" fill="none" fill-rule="evenodd" transform="matrix(-1 0 0 1 2391.87 1376.5)"/><path d="M2189.77 1376.28 2098.5 1254.5" stroke="#000000" stroke-width="6.875" stroke-miterlimit="8" fill="none" fill-rule="evenodd"/><path d="M0 0 97.577 136.014" stroke="#000000" stroke-width="6.875" stroke-miterlimit="8" fill="none" fill-rule="evenodd" transform="matrix(1 0 0 -1 2098.5 1254.51)"/><path d="M2479.5 1167.5 2479.5 1316.85" stroke="#000000" stroke-width="6.875" stroke-miterlimit="8" fill="none" fill-rule="evenodd"/><path d="M2392.5 1301.5 2392.5 1450.85" stroke="#000000" stroke-width="6.875" stroke-miterlimit="8" fill="none" fill-rule="evenodd"/><path d="M2189.5 1307.5 2189.5 1456.85" stroke="#000000" stroke-width="6.875" stroke-miterlimit="8" fill="none" fill-rule="evenodd"/><path d="M2098.5 1191.5 2098.5 1340.85" stroke="#000000" stroke-width="6.875" stroke-miterlimit="8" fill="none" fill-rule="evenodd"/><path d="M2191.5 1120.5 2337.2 1120.5" stroke="#000000" stroke-width="6.875" stroke-miterlimit="8" fill="none" fill-rule="evenodd"/><text font-family="Aptos,Aptos_MSFontService,sans-serif" font-weight="400" font-size="64" transform="matrix(1 0 0 1 2171.02 1227)">H</text><text font-family="Aptos,Aptos_MSFontService,sans-serif" font-weight="400" font-size="64" transform="matrix(1 0 0 1 2174 1031)">CH</text><text font-family="Aptos,Aptos_MSFontService,sans-serif" font-weight="400" font-size="43" transform="matrix(1 0 0 1 2263.95 1046)">2</text><text font-family="Aptos,Aptos_MSFontService,sans-serif" font-weight="400" font-size="64" transform="matrix(1 0 0 1 2286.87 1031)">OH</text><text font-family="Aptos,Aptos_MSFontService,sans-serif" font-weight="400" font-size="64" transform="matrix(1 0 0 1 2456.11 1158)">H</text><text font-family="Aptos,Aptos_MSFontService,sans-serif" font-weight="400" font-size="64" transform="matrix(1 0 0 1 2165.53 1300)">OH</text><text font-family="Aptos,Aptos_MSFontService,sans-serif" font-weight="400" font-size="64" transform="matrix(1 0 0 1 2368.42 1303)">H</text><text font-family="Aptos,Aptos_MSFontService,sans-serif" font-weight="400" font-size="64" transform="matrix(1 0 0 1 2370.12 1497)">OH</text><text font-family="Aptos,Aptos_MSFontService,sans-serif" font-weight="400" font-size="64" transform="matrix(1 0 0 1 2460.59 1366)">OH</text><path d="M2191.5 1040.5 2191.5 1189.85" stroke="#000000" stroke-width="6.875" stroke-miterlimit="8" fill="none" fill-rule="evenodd"/><text font-family="Aptos,Aptos_MSFontService,sans-serif" font-weight="400" font-size="64" transform="matrix(1 0 0 1 2029.05 1393)">HO</text><text font-family="Aptos,Aptos_MSFontService,sans-serif" font-weight="400" font-size="64" transform="matrix(1 0 0 1 2166.32 1497)">H</text><text font-family="Aptos,Aptos_MSFontService,sans-serif" font-weight="400" font-size="64" transform="matrix(1 0 0 1 2075.05 1197)">H</text></g></svg>