<svg width="1223" height="459" xmlns="http://www.w3.org/2000/svg" xmlns:xlink="http://www.w3.org/1999/xlink" xml:space="preserve" overflow="hidden"><g transform="translate(-1903 -935)"><path d="M2583.5 1242.17 2708.5 1150.5 2833.5 1242.17 2785.75 1390.5 2631.25 1390.5Z" stroke="#000000" stroke-width="6.875" stroke-miterlimit="8" fill="#61CBF4" fill-rule="evenodd"/><path d="M2536.5 1109.5 2584.38 1241.84" stroke="#000000" stroke-width="6.875" stroke-miterlimit="8" fill="none" fill-rule="evenodd"/><path d="M0 0 93.3434 0.000360892" stroke="#000000" stroke-width="6.875" stroke-miterlimit="8" fill="none" fill-rule="evenodd" transform="matrix(-1 0 0 1 2535.84 1112.5)"/><path d="M2318.5 1110.5C2318.5 1075.71 2346.71 1047.5 2381.5 1047.5 2416.29 1047.5 2444.5 1075.71 2444.5 1110.5 2444.5 1145.29 2416.29 1173.5 2381.5 1173.5 2346.71 1173.5 2318.5 1145.29 2318.5 1110.5Z" stroke="#000000" stroke-width="6.875" stroke-miterlimit="8" fill="#FFFF00" fill-rule="evenodd"/><text font-family="Aptos,Aptos_MSFontService,sans-serif" font-weight="400" font-size="83" transform="matrix(1 0 0 1 2356.9 1136)">P</text><path d="M0 0 93.3434 0.000360892" stroke="#000000" stroke-width="6.875" stroke-miterlimit="8" fill="none" fill-rule="evenodd" transform="matrix(-1 0 0 1 2317.84 1114.5)"/><path d="M2110.5 1110.5C2110.5 1075.71 2138.71 1047.5 2173.5 1047.5 2208.29 1047.5 2236.5 1075.71 2236.5 1110.5 2236.5 1145.29 2208.29 1173.5 2173.5 1173.5 2138.71 1173.5 2110.5 1145.29 2110.5 1110.5Z" stroke="#000000" stroke-width="6.875" stroke-miterlimit="8" fill="#FFFF00" fill-rule="evenodd"/><text font-family="Aptos,Aptos_MSFontService,sans-serif" font-weight="400" font-size="83" transform="matrix(1 0 0 1 2148.88 1136)">P</text><path d="M0 0 93.3434 0.000360892" stroke="#000000" stroke-width="6.875" stroke-miterlimit="8" fill="none" fill-rule="evenodd" transform="matrix(-1 0 0 1 2109.84 1119.5)"/><path d="M1914.5 1113.5C1914.5 1078.71 1942.71 1050.5 1977.5 1050.5 2012.29 1050.5 2040.5 1078.71 2040.5 1113.5 2040.5 1148.29 2012.29 1176.5 1977.5 1176.5 1942.71 1176.5 1914.5 1148.29 1914.5 1113.5Z" stroke="#000000" stroke-width="6.875" stroke-miterlimit="8" fill="#FFFF00" fill-rule="evenodd"/><text font-family="Aptos,Aptos_MSFontService,sans-serif" font-weight="400" font-size="83" transform="matrix(1 0 0 1 1953.26 1139)">P</text><path d="M0 0 63.0017 155.495" stroke="#000000" stroke-width="6.875" stroke-miterlimit="8" fill="none" fill-rule="evenodd" transform="matrix(-1 0 0 1 2896.5 1086.5)"/><path d="M2898.27 1088.5 2842.5 1017 2898.27 945.501 2988.5 972.811 2988.5 1061.19Z" stroke="#000000" stroke-width="6.875" stroke-miterlimit="8" fill="#4EA72E" fill-rule="evenodd"/><path d="M3055.5 1094.5 2988.5 1061 2988.5 973 3055.5 939.5 3122.5 973 3122.5 1061Z" stroke="#000000" stroke-width="6.875" stroke-miterlimit="8" fill="#4EA72E" fill-rule="evenodd"/></g></svg>