<svg width="465" height="457" xmlns="http://www.w3.org/2000/svg" xmlns:xlink="http://www.w3.org/1999/xlink" xml:space="preserve" overflow="hidden"><g transform="translate(-1917 -706)"><path d="M2312.79 931.275C2315.24 953.139 2348.08 985.224 2341.6 1009.75 2335.12 1034.27 2298.18 1069.2 2273.92 1078.41 2249.66 1087.62 2124.66 1096.4 2075.79 1078.44 2026.92 1060.48 1997.57 1007.72 1980.71 970.648 1963.85 933.574 1996.26 876.272 2016.17 851.354 2036.07 826.436 2032.3 818.4 2047.64 807.091 2062.98 795.782 2091.09 787.258 2108.19 783.499 2125.3 779.741 2178.07 765.931 2197.88 774.783 2217.69 783.635 2288.61 806.699 2315.7 817.837 2342.79 828.975 2332.71 864.231 2326.92 878.566 2321.13 892.901 2310.35 909.411 2312.79 931.275Z" stroke="#E97132" stroke-width="6.875" stroke-miterlimit="8" fill="#E97132" fill-rule="evenodd"/><path d="M2241.2 841.489C2219.43 799.92 2229.9 751.503 2264.57 733.347 2299.25 715.191 2345.01 734.171 2366.77 775.74 2388.54 817.31 2378.07 865.727 2343.39 883.883 2308.72 902.039 2262.96 883.058 2241.2 841.489Z" stroke="#0F9ED5" stroke-width="6.875" stroke-miterlimit="8" fill="#0F9ED5" fill-rule="evenodd"/><path d="M1936.02 894.392C1903.07 846.914 1926.18 773.856 1987.63 731.212 2049.08 688.569 2130.86 721.769 2158.55 739.966 2186.25 758.164 2162.4 813.203 2153.8 840.4 2145.2 867.596 2105.48 863.913 2082.74 878.946 2060.01 893.98 2045.89 932.059 2017.4 930.6 1988.91 929.141 1940.98 927.623 1936.02 894.392Z" stroke="#92D050" stroke-width="6.875" stroke-miterlimit="8" fill="#92D050" fill-rule="evenodd"/><path d="M2017.56 1087.8C2020.69 1058.38 2037.14 1047.47 2064.1 1035.52 2091.07 1023.57 2147.47 1039.57 2179.37 1037.98 2211.26 1036.4 2228.51 1014.05 2255.48 1026 2282.45 1037.95 2336.28 1066.28 2323.6 1087.8 2310.91 1109.32 2228.18 1159.5 2177.17 1159.5 2126.17 1159.5 2014.44 1117.22 2017.56 1087.8Z" stroke="#EDD62B" stroke-width="6.875" stroke-miterlimit="8" fill="#EDD62B" fill-rule="evenodd"/></g></svg>