<svg width="1129" height="834" xmlns="http://www.w3.org/2000/svg" xmlns:xlink="http://www.w3.org/1999/xlink" xml:space="preserve" overflow="hidden"><g transform="translate(-2843 -426)"><path d="M3280.5 534.5 3281.75 673.49" stroke="#000000" stroke-width="6.875" stroke-miterlimit="8" fill="none" fill-rule="evenodd"/><path d="M0 0 63.8 155.605" stroke="#000000" stroke-width="6.875" stroke-miterlimit="8" fill="none" fill-rule="evenodd" transform="matrix(-1 0 0 1 3497.3 970.5)"/><path d="M3278.5 667.5 3426.08 764.971" stroke="#000000" stroke-width="6.875" stroke-miterlimit="8" fill="none" fill-rule="evenodd"/><path d="M0 0 92.6649 58.9817" stroke="#000000" stroke-width="6.875" stroke-miterlimit="8" fill="none" fill-rule="evenodd" transform="matrix(-1 0 0 1 3868.16 717.5)"/><text font-family="Aptos,Aptos_MSFontService,sans-serif" font-weight="400" font-size="83" transform="matrix(1 0 0 1 3861.75 721)">O</text><path d="M3716.5 970.5 3780.3 1126.1" stroke="#000000" stroke-width="6.875" stroke-miterlimit="8" fill="none" fill-rule="evenodd"/><text font-family="Aptos,Aptos_MSFontService,sans-serif" font-weight="400" font-size="83" transform="matrix(1 0 0 1 3773.79 1183)">OH</text><text font-family="Aptos,Aptos_MSFontService,sans-serif" font-weight="400" font-size="83" transform="matrix(1 0 0 1 3336.6 1187)">HO</text><path d="M0 0 127.538 83.6278" stroke="#000000" stroke-width="6.875" stroke-miterlimit="8" fill="none" fill-rule="evenodd" transform="matrix(1 0 0 -1 3157.5 751.128)"/><path d="M3016.5 689.5 3160.1 749.846" stroke="#000000" stroke-width="6.875" stroke-miterlimit="8" fill="none" fill-rule="evenodd"/><text font-family="Aptos,Aptos_MSFontService,sans-serif" font-weight="400" font-size="83" transform="matrix(1 0 0 1 3402.85 575)">H</text><text font-family="Aptos,Aptos_MSFontService,sans-serif" font-weight="400" font-size="83" transform="matrix(1 0 0 1 2893.49 706)">HO</text><text font-family="Aptos,Aptos_MSFontService,sans-serif" font-weight="400" font-size="83" transform="matrix(1 0 0 1 3195.63 527)">HO</text><text font-family="Aptos,Aptos_MSFontService,sans-serif" font-weight="400" font-size="83" transform="matrix(1 0 0 1 3575.94 686)">O</text><path d="M3497.5 954.5 3712.44 954.5" stroke="#000000" stroke-width="6.875" stroke-miterlimit="8" fill="none" fill-rule="evenodd"/><path d="M0 0 84.4315 53.7412" stroke="#000000" stroke-width="6.875" stroke-miterlimit="8" fill="none" fill-rule="evenodd" transform="matrix(-1 0 0 1 3859.93 703.5)"/><path d="M3426.5 765.5 3495.43 977.931" stroke="#000000" stroke-width="6.875" stroke-miterlimit="8" fill="none" fill-rule="evenodd"/><path d="M0 0 141.434 101.985" stroke="#000000" stroke-width="6.875" stroke-miterlimit="8" fill="none" fill-rule="evenodd" transform="matrix(1 0 0 -1 3424.5 765.484)"/><path d="M3648.5 664.5 3782.38 757.15" stroke="#000000" stroke-width="6.875" stroke-miterlimit="8" fill="none" fill-rule="evenodd"/><path d="M3493.5 971.5 3716.54 971.5" stroke="#000000" stroke-width="6.875" stroke-miterlimit="8" fill="none" fill-rule="evenodd"/><path d="M0 0 65.5622 216.957" stroke="#000000" stroke-width="6.875" stroke-miterlimit="8" fill="none" fill-rule="evenodd" transform="matrix(-1 0 0 1 3782.06 756.5)"/><path d="M3428.5 583.5 3428.5 766.001" stroke="#000000" stroke-width="6.875" stroke-miterlimit="8" fill="none" fill-rule="evenodd"/></g></svg>