<svg width="468" height="457" xmlns="http://www.w3.org/2000/svg" xmlns:xlink="http://www.w3.org/1999/xlink" xml:space="preserve" overflow="hidden"><g transform="translate(-2125 -1182)"><text font-family="Aptos,Aptos_MSFontService,sans-serif" font-weight="400" font-size="46" transform="matrix(1 0 0 1 2397.48 1320)">O</text><path d="M2425.5 1321.5 2505.84 1400.32" stroke="#000000" stroke-width="6.875" stroke-miterlimit="8" fill="none" fill-rule="evenodd"/><path d="M0 0 68.4082 105.908" stroke="#000000" stroke-width="6.875" stroke-miterlimit="8" fill="none" fill-rule="evenodd" transform="matrix(-1 0 0 1 2505.91 1399.5)"/><path d="M0 0 158.374 0.000360892" stroke="#000000" stroke-width="6.875" stroke-miterlimit="8" fill="none" fill-rule="evenodd" transform="matrix(-1 0 0 1 2437.87 1505.5)"/><path d="M2278.93 1506.05 2207.5 1412.5" stroke="#000000" stroke-width="6.875" stroke-miterlimit="8" fill="none" fill-rule="evenodd"/><path d="M0 0 76.3619 104.488" stroke="#000000" stroke-width="6.875" stroke-miterlimit="8" fill="none" fill-rule="evenodd" transform="matrix(1 0 0 -1 2207.5 1411.99)"/><path d="M2505.5 1345.5 2505.5 1460.23" stroke="#000000" stroke-width="6.875" stroke-miterlimit="8" fill="none" fill-rule="evenodd"/><path d="M2437.5 1448.5 2437.5 1563.23" stroke="#000000" stroke-width="6.875" stroke-miterlimit="8" fill="none" fill-rule="evenodd"/><path d="M2279.5 1452.5 2279.5 1567.23" stroke="#000000" stroke-width="6.875" stroke-miterlimit="8" fill="none" fill-rule="evenodd"/><path d="M2207.5 1363.5 2207.5 1478.23" stroke="#000000" stroke-width="6.875" stroke-miterlimit="8" fill="none" fill-rule="evenodd"/><path d="M2280.5 1309.5 2394.52 1309.5" stroke="#000000" stroke-width="6.875" stroke-miterlimit="8" fill="none" fill-rule="evenodd"/><text font-family="Aptos,Aptos_MSFontService,sans-serif" font-weight="400" font-size="46" transform="matrix(1 0 0 1 2266.01 1392)">H</text><text font-family="Aptos,Aptos_MSFontService,sans-serif" font-weight="400" font-size="46" transform="matrix(1 0 0 1 2263.11 1241)">CH</text><text font-family="Aptos,Aptos_MSFontService,sans-serif" font-weight="400" font-size="31" transform="matrix(1 0 0 1 2327.28 1251)">2</text><text font-family="Aptos,Aptos_MSFontService,sans-serif" font-weight="400" font-size="46" transform="matrix(1 0 0 1 2343.32 1241)">OH</text><text font-family="Aptos,Aptos_MSFontService,sans-serif" font-weight="400" font-size="46" transform="matrix(1 0 0 1 2487.61 1341)">H</text><text font-family="Aptos,Aptos_MSFontService,sans-serif" font-weight="400" font-size="46" transform="matrix(1 0 0 1 2264.25 1448)">OH</text><text font-family="Aptos,Aptos_MSFontService,sans-serif" font-weight="400" font-size="46" transform="matrix(1 0 0 1 2421.53 1447)">H</text><text font-family="Aptos,Aptos_MSFontService,sans-serif" font-weight="400" font-size="46" transform="matrix(1 0 0 1 2427.49 1598)">OH</text><text font-family="Aptos,Aptos_MSFontService,sans-serif" font-weight="400" font-size="46" transform="matrix(1 0 0 1 2490.48 1496)">OH</text><path d="M2280.5 1247.5 2280.5 1362.23" stroke="#000000" stroke-width="6.875" stroke-miterlimit="8" fill="none" fill-rule="evenodd"/><text font-family="Aptos,Aptos_MSFontService,sans-serif" font-weight="400" font-size="46" transform="matrix(1 0 0 1 2158.12 1514)">HO</text><text font-family="Aptos,Aptos_MSFontService,sans-serif" font-weight="400" font-size="46" transform="matrix(1 0 0 1 2260.83 1597)">H</text><text font-family="Aptos,Aptos_MSFontService,sans-serif" font-weight="400" font-size="46" transform="matrix(1 0 0 1 2189.16 1360)">H</text></g></svg>