<svg width="820" height="801" xmlns="http://www.w3.org/2000/svg" xmlns:xlink="http://www.w3.org/1999/xlink" xml:space="preserve" overflow="hidden"><g transform="translate(-1767 -643)"><text font-family="Aptos,Aptos_MSFontService,sans-serif" font-weight="400" font-size="83" transform="matrix(1 0 0 1 2206.08 890)">O</text><path d="M2295.5 888.5 2414.08 1018.01" stroke="#000000" stroke-width="6.875" stroke-miterlimit="8" fill="none" fill-rule="evenodd"/><path d="M0 0 117.056 183.333" stroke="#000000" stroke-width="6.875" stroke-miterlimit="8" fill="none" fill-rule="evenodd" transform="matrix(-1 0 0 1 2414.56 1018.5)"/><path d="M0 0 271 0.000360892" stroke="#000000" stroke-width="6.875" stroke-miterlimit="8" fill="none" fill-rule="evenodd" transform="matrix(-1 0 0 1 2297.5 1201.5)"/><path d="M2026.72 1201.44 1904.5 1039.5" stroke="#000000" stroke-width="6.875" stroke-miterlimit="8" fill="none" fill-rule="evenodd"/><path d="M0 0 125.278 169.211" stroke="#000000" stroke-width="6.875" stroke-miterlimit="8" fill="none" fill-rule="evenodd" transform="matrix(1 0 0 -1 1904.5 1039.71)"/><path d="M2414.5 923.5 2414.5 1122.11" stroke="#000000" stroke-width="6.875" stroke-miterlimit="8" fill="none" fill-rule="evenodd"/><path d="M2297.5 1102.5 2297.5 1301.11" stroke="#000000" stroke-width="6.875" stroke-miterlimit="8" fill="none" fill-rule="evenodd"/><path d="M2026.5 1109.5 2026.5 1308.11" stroke="#000000" stroke-width="6.875" stroke-miterlimit="8" fill="none" fill-rule="evenodd"/><path d="M1904.5 954.5 1904.5 1153.11" stroke="#000000" stroke-width="6.875" stroke-miterlimit="8" fill="none" fill-rule="evenodd"/><path d="M0 0 147.832 4.9565" stroke="#000000" stroke-width="6.875" stroke-miterlimit="8" fill="none" fill-rule="evenodd" transform="matrix(1 0 0 -1 2025.5 869.457)"/><text font-family="Aptos,Aptos_MSFontService,sans-serif" font-weight="400" font-size="83" transform="matrix(1 0 0 1 2002.82 1009)">H</text><text font-family="Aptos,Aptos_MSFontService,sans-serif" font-weight="400" font-size="83" transform="matrix(1 0 0 1 2000.13 744)">CH</text><text font-family="Aptos,Aptos_MSFontService,sans-serif" font-weight="400" font-size="55" transform="matrix(1 0 0 1 2115.86 764)">2</text><text font-family="Aptos,Aptos_MSFontService,sans-serif" font-weight="400" font-size="83" transform="matrix(1 0 0 1 2145.08 744)">OH</text><text font-family="Aptos,Aptos_MSFontService,sans-serif" font-weight="400" font-size="83" transform="matrix(1 0 0 1 2383.33 919)">H</text><text font-family="Aptos,Aptos_MSFontService,sans-serif" font-weight="400" font-size="83" transform="matrix(1 0 0 1 1994.37 1098)">OH</text><text font-family="Aptos,Aptos_MSFontService,sans-serif" font-weight="400" font-size="83" transform="matrix(1 0 0 1 2269.33 1079)">H</text><text font-family="Aptos,Aptos_MSFontService,sans-serif" font-weight="400" font-size="83" transform="matrix(1 0 0 1 2271.49 1369)">OH</text><text font-family="Aptos,Aptos_MSFontService,sans-serif" font-weight="400" font-size="83" transform="matrix(1 0 0 1 2387.6 1186)">OH</text><path d="M2029.5 754.5 2029.5 953.111" stroke="#000000" stroke-width="6.875" stroke-miterlimit="8" fill="none" fill-rule="evenodd"/><text font-family="Aptos,Aptos_MSFontService,sans-serif" font-weight="400" font-size="83" transform="matrix(1 0 0 1 1817.44 1216)">HO</text><text font-family="Aptos,Aptos_MSFontService,sans-serif" font-weight="400" font-size="83" transform="matrix(1 0 0 1 1998.33 1371)">H</text><text font-family="Aptos,Aptos_MSFontService,sans-serif" font-weight="400" font-size="83" transform="matrix(1 0 0 1 1873.05 943)">H</text></g></svg>