<svg width="2134" height="820" xmlns="http://www.w3.org/2000/svg" xmlns:xlink="http://www.w3.org/1999/xlink" xml:space="preserve" overflow="hidden"><g transform="translate(-759 -270)"><path d="M0 0 97.8036 0.000360892" stroke="#000000" stroke-width="6.875" stroke-miterlimit="8" fill="none" fill-rule="evenodd" transform="matrix(-1 0 0 1 1634.3 358.5)"/><path d="M1368.5 358.5C1368.5 312.108 1406.11 274.5 1452.5 274.5 1498.89 274.5 1536.5 312.108 1536.5 358.5 1536.5 404.892 1498.89 442.5 1452.5 442.5 1406.11 442.5 1368.5 404.892 1368.5 358.5Z" stroke="#000000" stroke-width="6.875" stroke-miterlimit="8" fill="#FF0000" fill-rule="evenodd"/><text font-family="Arial Narrow,Arial Narrow_MSFontService,sans-serif" font-weight="400" font-stretch="condensed" font-size="32" transform="matrix(1 0 0 1 1432.33 370)">Thr</text><path d="M0 0 93.3434 0.000360892" stroke="#000000" stroke-width="6.875" stroke-miterlimit="8" fill="none" fill-rule="evenodd" transform="matrix(-1 0 0 1 1368.84 358.5)"/><path d="M1107.5 358.5C1107.5 312.108 1145.11 274.5 1191.5 274.5 1237.89 274.5 1275.5 312.108 1275.5 358.5 1275.5 404.892 1237.89 442.5 1191.5 442.5 1145.11 442.5 1107.5 404.892 1107.5 358.5Z" stroke="#000000" stroke-width="6.875" stroke-miterlimit="8" fill="#A6CAEC" fill-rule="evenodd"/><text font-family="Arial Narrow,Arial Narrow_MSFontService,sans-serif" font-weight="400" font-stretch="condensed" font-size="32" transform="matrix(1 0 0 1 1166.95 370)">Ph</text><text font-family="Arial Narrow,Arial Narrow_MSFontService,sans-serif" font-weight="400" font-stretch="condensed" font-size="32" transform="matrix(1 0 0 1 1199.6 370)">e</text><path d="M1620.5 358.5C1620.5 312.108 1658.11 274.5 1704.5 274.5 1750.89 274.5 1788.5 312.108 1788.5 358.5 1788.5 404.892 1750.89 442.5 1704.5 442.5 1658.11 442.5 1620.5 404.892 1620.5 358.5Z" stroke="#000000" stroke-width="6.875" stroke-miterlimit="8" fill="#FF99CC" fill-rule="evenodd"/><text font-family="Arial Narrow,Arial Narrow_MSFontService,sans-serif" font-weight="400" font-stretch="condensed" font-size="32" transform="matrix(1 0 0 1 1684.37 370)">Gly</text><path d="M0 0 93.3434 0.000360892" stroke="#000000" stroke-width="6.875" stroke-miterlimit="8" fill="none" fill-rule="evenodd" transform="matrix(-1 0 0 1 1881.84 358.5)"/><path d="M0 0 97.8036 0.000360892" stroke="#000000" stroke-width="6.875" stroke-miterlimit="8" fill="none" fill-rule="evenodd" transform="matrix(-1 0 0 1 2409.3 358.5)"/><path d="M2143.5 358.5C2143.5 312.108 2181.11 274.5 2227.5 274.5 2273.89 274.5 2311.5 312.108 2311.5 358.5 2311.5 404.892 2273.89 442.5 2227.5 442.5 2181.11 442.5 2143.5 404.892 2143.5 358.5Z" stroke="#000000" stroke-width="6.875" stroke-miterlimit="8" fill="#E8E8E8" fill-rule="evenodd"/><text font-family="Arial Narrow,Arial Narrow_MSFontService,sans-serif" font-weight="400" font-stretch="condensed" font-size="32" transform="matrix(1 0 0 1 2206.26 370)">Se</text><text font-family="Arial Narrow,Arial Narrow_MSFontService,sans-serif" font-weight="400" font-stretch="condensed" font-size="32" transform="matrix(1 0 0 1 2238.92 370)">r</text><path d="M0 0 93.3434 0.000360892" stroke="#000000" stroke-width="6.875" stroke-miterlimit="8" fill="none" fill-rule="evenodd" transform="matrix(-1 0 0 1 2143.84 358.5)"/><path d="M1881.5 358.5C1881.5 312.108 1919.33 274.5 1966 274.5 2012.67 274.5 2050.5 312.108 2050.5 358.5 2050.5 404.892 2012.67 442.5 1966 442.5 1919.33 442.5 1881.5 404.892 1881.5 358.5Z" stroke="#000000" stroke-width="6.875" stroke-miterlimit="8" fill="#92D050" fill-rule="evenodd"/><text font-family="Arial Narrow,Arial Narrow_MSFontService,sans-serif" font-weight="400" font-stretch="condensed" font-size="32" transform="matrix(1 0 0 1 1944.89 370)">Gln</text><path d="M2395.5 358.5C2395.5 312.108 2433.11 274.5 2479.5 274.5 2525.89 274.5 2563.5 312.108 2563.5 358.5 2563.5 404.892 2525.89 442.5 2479.5 442.5 2433.11 442.5 2395.5 404.892 2395.5 358.5Z" stroke="#000000" stroke-width="6.875" stroke-miterlimit="8" fill="#84E291" fill-rule="evenodd"/><text font-family="Arial Narrow,Arial Narrow_MSFontService,sans-serif" font-weight="400" font-stretch="condensed" font-size="32" transform="matrix(1 0 0 1 2460.02 370)">His</text><path d="M0 0 100.939 0.000360892" stroke="#000000" stroke-width="6.875" stroke-miterlimit="8" fill="none" fill-rule="evenodd" transform="matrix(-1 0 0 1 1107.44 358.5)"/><path d="M853.5 357.5C853.5 311.108 891.108 273.5 937.5 273.5 983.892 273.5 1021.5 311.108 1021.5 357.5 1021.5 403.892 983.892 441.5 937.5 441.5 891.108 441.5 853.5 403.892 853.5 357.5Z" stroke="#000000" stroke-width="6.875" stroke-miterlimit="8" fill="#FF0000" fill-rule="evenodd"/><text font-family="Arial Narrow,Arial Narrow_MSFontService,sans-serif" font-weight="400" font-stretch="condensed" font-size="32" transform="matrix(1 0 0 1 917.398 368)">Thr</text><path d="M0 0 97.8036 0.000360892" stroke="#000000" stroke-width="6.875" stroke-miterlimit="8" fill="none" fill-rule="evenodd" transform="matrix(-1 0 0 1 1718.3 569.5)"/><path d="M1452.5 569.5C1452.5 523.108 1490.11 485.5 1536.5 485.5 1582.89 485.5 1620.5 523.108 1620.5 569.5 1620.5 615.892 1582.89 653.5 1536.5 653.5 1490.11 653.5 1452.5 615.892 1452.5 569.5Z" stroke="#000000" stroke-width="6.875" stroke-miterlimit="8" fill="#FFC000" fill-rule="evenodd"/><text font-family="Arial Narrow,Arial Narrow_MSFontService,sans-serif" font-weight="400" font-stretch="condensed" font-size="32" transform="matrix(1 0 0 1 1517.2 581)">Tyr</text><path d="M0 0 93.3434 0.000360892" stroke="#000000" stroke-width="6.875" stroke-miterlimit="8" fill="none" fill-rule="evenodd" transform="matrix(-1 0 0 1 1452.84 569.5)"/><path d="M1191.5 569.5C1191.5 523.108 1229.11 485.5 1275.5 485.5 1321.89 485.5 1359.5 523.108 1359.5 569.5 1359.5 615.892 1321.89 653.5 1275.5 653.5 1229.11 653.5 1191.5 615.892 1191.5 569.5Z" stroke="#000000" stroke-width="6.875" stroke-miterlimit="8" fill="#FFFF00" fill-rule="evenodd"/><text font-family="Arial Narrow,Arial Narrow_MSFontService,sans-serif" font-weight="400" font-stretch="condensed" font-size="32" transform="matrix(1 0 0 1 1251.82 581)">Asp</text><path d="M1704.5 569.5C1704.5 523.108 1742.11 485.5 1788.5 485.5 1834.89 485.5 1872.5 523.108 1872.5 569.5 1872.5 615.892 1834.89 653.5 1788.5 653.5 1742.11 653.5 1704.5 615.892 1704.5 569.5Z" stroke="#000000" stroke-width="6.875" stroke-miterlimit="8" fill="#E8E8E8" fill-rule="evenodd"/><text font-family="Arial Narrow,Arial Narrow_MSFontService,sans-serif" font-weight="400" font-stretch="condensed" font-size="32" transform="matrix(1 0 0 1 1767.53 581)">Ser</text><path d="M0 0 93.3434 0.000360892" stroke="#000000" stroke-width="6.875" stroke-miterlimit="8" fill="none" fill-rule="evenodd" transform="matrix(-1 0 0 1 1965.84 569.5)"/><path d="M0 0 97.8036 0.000360892" stroke="#000000" stroke-width="6.875" stroke-miterlimit="8" fill="none" fill-rule="evenodd" transform="matrix(-1 0 0 1 2493.3 569.5)"/><path d="M2227.5 569.5C2227.5 523.108 2265.11 485.5 2311.5 485.5 2357.89 485.5 2395.5 523.108 2395.5 569.5 2395.5 615.892 2357.89 653.5 2311.5 653.5 2265.11 653.5 2227.5 615.892 2227.5 569.5Z" stroke="#000000" stroke-width="6.875" stroke-miterlimit="8" fill="#FFC000" fill-rule="evenodd"/><text font-family="Arial Narrow,Arial Narrow_MSFontService,sans-serif" font-weight="400" font-stretch="condensed" font-size="32" transform="matrix(1 0 0 1 2292 581)">Tyr</text><path d="M0 0 93.3434 0.000360892" stroke="#000000" stroke-width="6.875" stroke-miterlimit="8" fill="none" fill-rule="evenodd" transform="matrix(-1 0 0 1 2227.84 569.5)"/><path d="M1966.5 569.5C1966.5 523.108 2004.11 485.5 2050.5 485.5 2096.89 485.5 2134.5 523.108 2134.5 569.5 2134.5 615.892 2096.89 653.5 2050.5 653.5 2004.11 653.5 1966.5 615.892 1966.5 569.5Z" stroke="#000000" stroke-width="6.875" stroke-miterlimit="8" fill="#0000CC" fill-rule="evenodd"/><text font-family="Arial Narrow,Arial Narrow_MSFontService,sans-serif" font-weight="400" font-stretch="condensed" font-size="32" transform="matrix(1 0 0 1 2028.9 581)">Lys</text><path d="M2479.5 569.5C2479.5 523.108 2517.11 485.5 2563.5 485.5 2609.89 485.5 2647.5 523.108 2647.5 569.5 2647.5 615.892 2609.89 653.5 2563.5 653.5 2517.11 653.5 2479.5 615.892 2479.5 569.5Z" stroke="#000000" stroke-width="6.875" stroke-miterlimit="8" fill="#FF6600" fill-rule="evenodd"/><text font-family="Arial Narrow,Arial Narrow_MSFontService,sans-serif" font-weight="400" font-stretch="condensed" font-size="32" transform="matrix(1 0 0 1 2540.6 581)">Leu</text><path d="M0 0 100.939 0.000360892" stroke="#000000" stroke-width="6.875" stroke-miterlimit="8" fill="none" fill-rule="evenodd" transform="matrix(-1 0 0 1 1191.44 569.5)"/><path d="M937.5 568C937.5 521.332 975.108 483.5 1021.5 483.5 1067.89 483.5 1105.5 521.332 1105.5 568 1105.5 614.668 1067.89 652.5 1021.5 652.5 975.108 652.5 937.5 614.668 937.5 568Z" stroke="#000000" stroke-width="6.875" stroke-miterlimit="8" fill="#E8E8E8" fill-rule="evenodd"/><text font-family="Arial Narrow,Arial Narrow_MSFontService,sans-serif" font-weight="400" font-stretch="condensed" font-size="32" transform="matrix(1 0 0 1 1000.55 579)">Ser</text><path d="M0 0 97.8036 0.000360892" stroke="#000000" stroke-width="6.875" stroke-miterlimit="8" fill="none" fill-rule="evenodd" transform="matrix(-1 0 0 1 1634.3 805.5)"/><path d="M1368.5 805.5C1368.5 759.108 1406.11 721.5 1452.5 721.5 1498.89 721.5 1536.5 759.108 1536.5 805.5 1536.5 851.892 1498.89 889.5 1452.5 889.5 1406.11 889.5 1368.5 851.892 1368.5 805.5Z" stroke="#000000" stroke-width="6.875" stroke-miterlimit="8" fill="#215F9A" fill-rule="evenodd"/><text font-family="Arial Narrow,Arial Narrow_MSFontService,sans-serif" font-weight="400" font-stretch="condensed" font-size="32" transform="matrix(1 0 0 1 1432.9 817)">Ala</text><path d="M0 0 93.3434 0.000360892" stroke="#000000" stroke-width="6.875" stroke-miterlimit="8" fill="none" fill-rule="evenodd" transform="matrix(-1 0 0 1 1368.84 805.5)"/><path d="M1107.5 805.5C1107.5 759.108 1145.11 721.5 1191.5 721.5 1237.89 721.5 1275.5 759.108 1275.5 805.5 1275.5 851.892 1237.89 889.5 1191.5 889.5 1145.11 889.5 1107.5 851.892 1107.5 805.5Z" stroke="#000000" stroke-width="6.875" stroke-miterlimit="8" fill="#92D050" fill-rule="evenodd"/><text font-family="Arial Narrow,Arial Narrow_MSFontService,sans-serif" font-weight="400" font-stretch="condensed" font-size="32" transform="matrix(1 0 0 1 1170.1 817)">Gln</text><path d="M1620.5 805.5C1620.5 759.108 1658.11 721.5 1704.5 721.5 1750.89 721.5 1788.5 759.108 1788.5 805.5 1788.5 851.892 1750.89 889.5 1704.5 889.5 1658.11 889.5 1620.5 851.892 1620.5 805.5Z" stroke="#000000" stroke-width="6.875" stroke-miterlimit="8" fill="#46B1E1" fill-rule="evenodd"/><text font-family="Arial Narrow,Arial Narrow_MSFontService,sans-serif" font-weight="400" font-stretch="condensed" font-size="32" transform="matrix(1 0 0 1 1683.52 817)">Arg</text><path d="M0 0 93.3434 0.000360892" stroke="#000000" stroke-width="6.875" stroke-miterlimit="8" fill="none" fill-rule="evenodd" transform="matrix(-1 0 0 1 1881.84 805.5)"/><path d="M0 0 97.8036 0.000360892" stroke="#000000" stroke-width="6.875" stroke-miterlimit="8" fill="none" fill-rule="evenodd" transform="matrix(-1 0 0 1 2409.3 805.5)"/><path d="M2143.5 805.5C2143.5 759.108 2181.11 721.5 2227.5 721.5 2273.89 721.5 2311.5 759.108 2311.5 805.5 2311.5 851.892 2273.89 889.5 2227.5 889.5 2181.11 889.5 2143.5 851.892 2143.5 805.5Z" stroke="#000000" stroke-width="6.875" stroke-miterlimit="8" fill="#E8E8E8" fill-rule="evenodd"/><text font-family="Arial Narrow,Arial Narrow_MSFontService,sans-serif" font-weight="400" font-stretch="condensed" font-size="32" transform="matrix(1 0 0 1 2206.26 817)">Ser</text><path d="M0 0 93.3434 0.000360892" stroke="#000000" stroke-width="6.875" stroke-miterlimit="8" fill="none" fill-rule="evenodd" transform="matrix(-1 0 0 1 2143.84 805.5)"/><path d="M1881.5 805.5C1881.5 759.108 1919.33 721.5 1966 721.5 2012.67 721.5 2050.5 759.108 2050.5 805.5 2050.5 851.892 2012.67 889.5 1966 889.5 1919.33 889.5 1881.5 851.892 1881.5 805.5Z" stroke="#000000" stroke-width="6.875" stroke-miterlimit="8" fill="#46B1E1" fill-rule="evenodd"/><text font-family="Arial Narrow,Arial Narrow_MSFontService,sans-serif" font-weight="400" font-stretch="condensed" font-size="32" transform="matrix(1 0 0 1 1944.89 817)">Arg</text><path d="M2395.5 805.5C2395.5 759.108 2433.11 721.5 2479.5 721.5 2525.89 721.5 2563.5 759.108 2563.5 805.5 2563.5 851.892 2525.89 889.5 2479.5 889.5 2433.11 889.5 2395.5 851.892 2395.5 805.5Z" stroke="#000000" stroke-width="6.875" stroke-miterlimit="8" fill="#FFFF00" fill-rule="evenodd"/><text font-family="Arial Narrow,Arial Narrow_MSFontService,sans-serif" font-weight="400" font-stretch="condensed" font-size="32" transform="matrix(1 0 0 1 2456.01 817)">Asp</text><path d="M0 0 100.939 0.000360892" stroke="#000000" stroke-width="6.875" stroke-miterlimit="8" fill="none" fill-rule="evenodd" transform="matrix(-1 0 0 1 1107.44 805.5)"/><path d="M853.5 803.5C853.5 757.108 891.108 719.5 937.5 719.5 983.892 719.5 1021.5 757.108 1021.5 803.5 1021.5 849.892 983.892 887.5 937.5 887.5 891.108 887.5 853.5 849.892 853.5 803.5Z" stroke="#000000" stroke-width="6.875" stroke-miterlimit="8" fill="#FFFF00" fill-rule="evenodd"/><text font-family="Arial Narrow,Arial Narrow_MSFontService,sans-serif" font-weight="400" font-stretch="condensed" font-size="32" transform="matrix(1 0 0 1 914.247 815)">Asp</text><path d="M0 0 97.8036 0.000360892" stroke="#000000" stroke-width="6.875" stroke-miterlimit="8" fill="none" fill-rule="evenodd" transform="matrix(-1 0 0 1 1718.3 1002.5)"/><path d="M1452.5 1002.5C1452.5 956.108 1490.11 918.5 1536.5 918.5 1582.89 918.5 1620.5 956.108 1620.5 1002.5 1620.5 1048.89 1582.89 1086.5 1536.5 1086.5 1490.11 1086.5 1452.5 1048.89 1452.5 1002.5Z" stroke="#000000" stroke-width="6.875" stroke-miterlimit="8" fill="#92D050" fill-rule="evenodd"/><text font-family="Arial Narrow,Arial Narrow_MSFontService,sans-serif" font-weight="400" font-stretch="condensed" font-size="32" transform="matrix(1 0 0 1 1515.49 1014)">Gln</text><path d="M0 0 93.3434 0.000360892" stroke="#000000" stroke-width="6.875" stroke-miterlimit="8" fill="none" fill-rule="evenodd" transform="matrix(-1 0 0 1 1452.84 1002.5)"/><path d="M1191.5 1002.5C1191.5 956.108 1229.11 918.5 1275.5 918.5 1321.89 918.5 1359.5 956.108 1359.5 1002.5 1359.5 1048.89 1321.89 1086.5 1275.5 1086.5 1229.11 1086.5 1191.5 1048.89 1191.5 1002.5Z" stroke="#000000" stroke-width="6.875" stroke-miterlimit="8" fill="#00CC00" fill-rule="evenodd"/><text font-family="Arial Narrow,Arial Narrow_MSFontService,sans-serif" font-weight="400" font-stretch="condensed" font-size="32" transform="matrix(1 0 0 1 1255.54 1014)">Val</text><path d="M1704.5 1002.5C1704.5 956.108 1742.11 918.5 1788.5 918.5 1834.89 918.5 1872.5 956.108 1872.5 1002.5 1872.5 1048.89 1834.89 1086.5 1788.5 1086.5 1742.11 1086.5 1704.5 1048.89 1704.5 1002.5Z" stroke="#000000" stroke-width="6.875" stroke-miterlimit="8" fill="#FFFFCC" fill-rule="evenodd"/><text font-family="Arial Narrow,Arial Narrow_MSFontService,sans-serif" font-weight="400" font-stretch="condensed" font-size="32" transform="matrix(1 0 0 1 1768.39 1014)">Trp</text><path d="M0 0 93.3434 0.000360892" stroke="#000000" stroke-width="6.875" stroke-miterlimit="8" fill="none" fill-rule="evenodd" transform="matrix(-1 0 0 1 1965.84 1002.5)"/><path d="M0 0 97.8036 0.000360892" stroke="#000000" stroke-width="6.875" stroke-miterlimit="8" fill="none" fill-rule="evenodd" transform="matrix(-1 0 0 1 2493.3 1002.5)"/><path d="M2227.5 1002.5C2227.5 956.108 2265.11 918.5 2311.5 918.5 2357.89 918.5 2395.5 956.108 2395.5 1002.5 2395.5 1048.89 2357.89 1086.5 2311.5 1086.5 2265.11 1086.5 2227.5 1048.89 2227.5 1002.5Z" stroke="#000000" stroke-width="6.875" stroke-miterlimit="8" fill="#D86ECC" fill-rule="evenodd"/><text font-family="Arial Narrow,Arial Narrow_MSFontService,sans-serif" font-weight="400" font-stretch="condensed" font-size="32" transform="matrix(1 0 0 1 2288.84 1014)">Met</text><path d="M0 0 93.3434 0.000360892" stroke="#000000" stroke-width="6.875" stroke-miterlimit="8" fill="none" fill-rule="evenodd" transform="matrix(-1 0 0 1 2227.84 1002.5)"/><path d="M1966.5 1002.5C1966.5 956.108 2004.11 918.5 2050.5 918.5 2096.89 918.5 2134.5 956.108 2134.5 1002.5 2134.5 1048.89 2096.89 1086.5 2050.5 1086.5 2004.11 1086.5 1966.5 1048.89 1966.5 1002.5Z" stroke="#000000" stroke-width="6.875" stroke-miterlimit="8" fill="#FF6600" fill-rule="evenodd"/><text font-family="Arial Narrow,Arial Narrow_MSFontService,sans-serif" font-weight="400" font-stretch="condensed" font-size="32" transform="matrix(1 0 0 1 2027.18 1014)">Leu</text><path d="M2479.5 1002.5C2479.5 956.108 2517.11 918.5 2563.5 918.5 2609.89 918.5 2647.5 956.108 2647.5 1002.5 2647.5 1048.89 2609.89 1086.5 2563.5 1086.5 2517.11 1086.5 2479.5 1048.89 2479.5 1002.5Z" stroke="#000000" stroke-width="6.875" stroke-miterlimit="8" fill="#F2AA84" fill-rule="evenodd"/><text font-family="Arial Narrow,Arial Narrow_MSFontService,sans-serif" font-weight="400" font-stretch="condensed" font-size="32" transform="matrix(1 0 0 1 2540.03 1014)">Asn</text><path d="M0 0 100.939 0.000360892" stroke="#000000" stroke-width="6.875" stroke-miterlimit="8" fill="none" fill-rule="evenodd" transform="matrix(-1 0 0 1 1191.44 1002.5)"/><path d="M937.5 1000.5C937.5 954.108 975.108 916.5 1021.5 916.5 1067.89 916.5 1105.5 954.108 1105.5 1000.5 1105.5 1046.89 1067.89 1084.5 1021.5 1084.5 975.108 1084.5 937.5 1046.89 937.5 1000.5Z" stroke="#000000" stroke-width="6.875" stroke-miterlimit="8" fill="#A6CAEC" fill-rule="evenodd"/><text font-family="Arial Narrow,Arial Narrow_MSFontService,sans-serif" font-weight="400" font-stretch="condensed" font-size="32" transform="matrix(1 0 0 1 997.402 1012)">Phe</text><path d="M2721.5 1000.5C2721.5 954.108 2759.11 916.5 2805.5 916.5 2851.89 916.5 2889.5 954.108 2889.5 1000.5 2889.5 1046.89 2851.89 1084.5 2805.5 1084.5 2759.11 1084.5 2721.5 1046.89 2721.5 1000.5Z" stroke="#000000" stroke-width="6.875" stroke-miterlimit="8" fill="#FF0000" fill-rule="evenodd"/><text font-family="Arial Narrow,Arial Narrow_MSFontService,sans-serif" font-weight="400" font-stretch="condensed" font-size="32" transform="matrix(1 0 0 1 2785.01 1012)">Thr</text><path d="M0 0 73.8021 0.000360892" stroke="#000000" stroke-width="6.875" stroke-miterlimit="8" fill="none" fill-rule="evenodd" transform="matrix(-1 0 0 1 2721.3 1002.5)"/><path d="M0 0 88.6489 1.83297" stroke="#000000" stroke-width="6.875" stroke-miterlimit="8" fill="none" fill-rule="evenodd" transform="matrix(-1 0 0 1 854.149 357.5)"/><path d="M768.5 357.5 768.5 568.453" stroke="#000000" stroke-width="6.875" stroke-miterlimit="8" fill="none" fill-rule="evenodd"/><path d="M0 0 172.664 1.83297" stroke="#000000" stroke-width="6.875" stroke-miterlimit="8" fill="none" fill-rule="evenodd" transform="matrix(-1 0 0 1 938.164 568.5)"/><path d="M0 0 215.233 0.000360892" stroke="#000000" stroke-width="6.875" stroke-miterlimit="8" fill="none" fill-rule="evenodd" transform="matrix(-1 0 0 1 2777.73 807.5)"/><path d="M2776.5 568.5 2776.5 807.051" stroke="#000000" stroke-width="6.875" stroke-miterlimit="8" fill="none" fill-rule="evenodd"/><path d="M0 0 129.067 0.000360892" stroke="#000000" stroke-width="6.875" stroke-miterlimit="8" fill="none" fill-rule="evenodd" transform="matrix(-1 0 0 1 2774.57 573.5)"/><path d="M0 0 88.6489 1.83297" stroke="#000000" stroke-width="6.875" stroke-miterlimit="8" fill="none" fill-rule="evenodd" transform="matrix(-1 0 0 1 851.149 802.5)"/><path d="M765.5 802.5 765.5 1003.51" stroke="#000000" stroke-width="6.875" stroke-miterlimit="8" fill="none" fill-rule="evenodd"/><path d="M0 0 174.039 0.000360892" stroke="#000000" stroke-width="6.875" stroke-miterlimit="8" fill="none" fill-rule="evenodd" transform="matrix(-1 0 0 1 937.539 1000.5)"/></g></svg>