<svg width="1056" height="318" xmlns="http://www.w3.org/2000/svg" xmlns:xlink="http://www.w3.org/1999/xlink" xml:space="preserve" overflow="hidden"><g transform="translate(-311 -87)"><text font-family="Arial,Arial_MSFontService,sans-serif" font-weight="400" font-size="18" transform="matrix(0.982062 0.188558 -0.188558 0.982062 1258.48 304)">—</text><text font-family="Arial,Arial_MSFontService,sans-serif" font-weight="400" font-size="18" transform="matrix(0.982062 0.188558 -0.188558 0.982062 1276.48 308)">S</text><text font-family="Arial,Arial_MSFontService,sans-serif" font-weight="400" font-size="18" transform="matrix(0.982062 0.188558 -0.188558 0.982062 1288.3 310)">-</text><text font-family="Arial,Arial_MSFontService,sans-serif" font-weight="400" font-size="18" transform="matrix(0.982062 0.188558 -0.188558 0.982062 1294.49 311)">S</text><text font-family="Arial,Arial_MSFontService,sans-serif" font-weight="400" font-size="18" transform="matrix(0.982062 0.188558 -0.188558 0.982062 1306.3 313)">—</text><text font-family="Arial,Arial_MSFontService,sans-serif" font-weight="400" font-size="18" transform="matrix(0.54317 0.839622 -0.839622 0.54317 486.71 134)">—</text><text font-family="Arial,Arial_MSFontService,sans-serif" font-weight="400" font-size="18" transform="matrix(0.54317 0.839622 -0.839622 0.54317 496.668 149)">S</text><text font-family="Arial,Arial_MSFontService,sans-serif" font-weight="400" font-size="18" transform="matrix(0.54317 0.839622 -0.839622 0.54317 503.203 159)">-</text><text font-family="Arial,Arial_MSFontService,sans-serif" font-weight="400" font-size="18" transform="matrix(0.54317 0.839622 -0.839622 0.54317 506.626 164)">S</text><text font-family="Arial,Arial_MSFontService,sans-serif" font-weight="400" font-size="18" transform="matrix(0.54317 0.839622 -0.839622 0.54317 513.161 174)">—</text><path d="M407.5 118.5C407.5 108.559 415.335 100.5 425 100.5 434.665 100.5 442.5 108.559 442.5 118.5 442.5 128.441 434.665 136.5 425 136.5 415.335 136.5 407.5 128.441 407.5 118.5Z" stroke="#000000" stroke-width="6.875" stroke-miterlimit="8" fill="#1763A9" fill-rule="evenodd"/><path d="M440.5 118.5 477.625 118.5" stroke="#000000" stroke-width="6.875" stroke-miterlimit="8" fill="none" fill-rule="evenodd"/><path d="M474.5 118.5C474.5 108.559 482.559 100.5 492.5 100.5 502.441 100.5 510.5 108.559 510.5 118.5 510.5 128.441 502.441 136.5 492.5 136.5 482.559 136.5 474.5 128.441 474.5 118.5Z" stroke="#000000" stroke-width="6.875" stroke-miterlimit="8" fill="#1763A9" fill-rule="evenodd"/><path d="M507.5 118.5 544.625 118.5" stroke="#000000" stroke-width="6.875" stroke-miterlimit="8" fill="none" fill-rule="evenodd"/><path d="M541.5 121.5C541.5 111.559 549.559 103.5 559.5 103.5 569.441 103.5 577.5 111.559 577.5 121.5 577.5 131.441 569.441 139.5 559.5 139.5 549.559 139.5 541.5 131.441 541.5 121.5Z" stroke="#000000" stroke-width="6.875" stroke-miterlimit="8" fill="#1763A9" fill-rule="evenodd"/><path d="M574.5 121.5 611.625 121.5" stroke="#000000" stroke-width="6.875" stroke-miterlimit="8" fill="none" fill-rule="evenodd"/><path d="M605.5 123C605.5 113.335 613.335 105.5 623 105.5 632.665 105.5 640.5 113.335 640.5 123 640.5 132.665 632.665 140.5 623 140.5 613.335 140.5 605.5 132.665 605.5 123Z" stroke="#000000" stroke-width="6.875" stroke-miterlimit="8" fill="#1763A9" fill-rule="evenodd"/><path d="M638.5 122.5 675.625 122.5" stroke="#000000" stroke-width="6.875" stroke-miterlimit="8" fill="none" fill-rule="evenodd"/><path d="M668.5 124.5C668.5 114.559 676.559 106.5 686.5 106.5 696.441 106.5 704.5 114.559 704.5 124.5 704.5 134.441 696.441 142.5 686.5 142.5 676.559 142.5 668.5 134.441 668.5 124.5Z" stroke="#000000" stroke-width="6.875" stroke-miterlimit="8" fill="#1763A9" fill-rule="evenodd"/><path d="M701.5 124.5 738.625 124.5" stroke="#000000" stroke-width="6.875" stroke-miterlimit="8" fill="none" fill-rule="evenodd"/><path d="M728.5 127C728.5 117.335 736.559 109.5 746.5 109.5 756.441 109.5 764.5 117.335 764.5 127 764.5 136.665 756.441 144.5 746.5 144.5 736.559 144.5 728.5 136.665 728.5 127Z" stroke="#000000" stroke-width="6.875" stroke-miterlimit="8" fill="#1763A9" fill-rule="evenodd"/><path d="M761.5 127.5 798.625 127.5" stroke="#000000" stroke-width="6.875" stroke-miterlimit="8" fill="none" fill-rule="evenodd"/><path d="M790.5 127C790.5 117.335 798.559 109.5 808.5 109.5 818.441 109.5 826.5 117.335 826.5 127 826.5 136.665 818.441 144.5 808.5 144.5 798.559 144.5 790.5 136.665 790.5 127Z" stroke="#000000" stroke-width="6.875" stroke-miterlimit="8" fill="#1763A9" fill-rule="evenodd"/><path d="M823.5 127.5 860.625 127.5" stroke="#000000" stroke-width="6.875" stroke-miterlimit="8" fill="none" fill-rule="evenodd"/><path d="M855.5 128.5C855.5 118.559 863.559 110.5 873.5 110.5 883.441 110.5 891.5 118.559 891.5 128.5 891.5 138.441 883.441 146.5 873.5 146.5 863.559 146.5 855.5 138.441 855.5 128.5Z" stroke="#000000" stroke-width="6.875" stroke-miterlimit="8" fill="#1763A9" fill-rule="evenodd"/><path d="M888.5 128.5 925.625 128.5" stroke="#000000" stroke-width="6.875" stroke-miterlimit="8" fill="none" fill-rule="evenodd"/><path d="M915.5 128.5C915.5 118.559 923.559 110.5 933.5 110.5 943.441 110.5 951.5 118.559 951.5 128.5 951.5 138.441 943.441 146.5 933.5 146.5 923.559 146.5 915.5 138.441 915.5 128.5Z" stroke="#000000" stroke-width="6.875" stroke-miterlimit="8" fill="#1763A9" fill-rule="evenodd"/><path d="M948.5 128.5 985.625 128.5" stroke="#000000" stroke-width="6.875" stroke-miterlimit="8" fill="none" fill-rule="evenodd"/><path d="M981.5 127C981.5 117.335 989.559 109.5 999.5 109.5 1009.44 109.5 1017.5 117.335 1017.5 127 1017.5 136.665 1009.44 144.5 999.5 144.5 989.559 144.5 981.5 136.665 981.5 127Z" stroke="#000000" stroke-width="6.875" stroke-miterlimit="8" fill="#1763A9" fill-rule="evenodd"/><path d="M1014.5 127.5 1051.62 127.5" stroke="#000000" stroke-width="6.875" stroke-miterlimit="8" fill="none" fill-rule="evenodd"/><path d="M1109.5 124.5C1109.5 114.559 1117.56 106.5 1127.5 106.5 1137.44 106.5 1145.5 114.559 1145.5 124.5 1145.5 134.441 1137.44 142.5 1127.5 142.5 1117.56 142.5 1109.5 134.441 1109.5 124.5Z" stroke="#000000" stroke-width="6.875" stroke-miterlimit="8" fill="#1763A9" fill-rule="evenodd"/><path d="M1142.5 124.5 1179.63 124.5" stroke="#000000" stroke-width="6.875" stroke-miterlimit="8" fill="none" fill-rule="evenodd"/><path d="M1169.78 119.803C1171.41 110.066 1180.62 103.492 1190.36 105.12 1200.09 106.747 1206.67 115.96 1205.04 125.697 1203.41 135.434 1194.2 142.008 1184.46 140.38 1174.73 138.753 1168.15 129.54 1169.78 119.803Z" stroke="#000000" stroke-width="6.875" stroke-miterlimit="8" fill="#1763A9" fill-rule="evenodd"/><path d="M1202.33 125.243 1238.95 131.364" stroke="#000000" stroke-width="6.875" stroke-miterlimit="8" fill="none" fill-rule="evenodd"/><path d="M1229.3 120.757C1234.79 112.551 1245.89 110.348 1254.1 115.837 1262.3 121.325 1264.51 132.427 1259.02 140.633 1253.53 148.838 1242.43 151.041 1234.22 145.552 1226.02 140.064 1223.81 128.963 1229.3 120.757Z" stroke="#000000" stroke-width="6.875" stroke-miterlimit="8" fill="#1763A9" fill-rule="evenodd"/><path d="M1256.73 139.104 1287.59 159.744" stroke="#000000" stroke-width="6.875" stroke-miterlimit="8" fill="none" fill-rule="evenodd"/><path d="M1285.68 146.739C1294.04 141.502 1305.07 144.039 1310.31 152.407 1315.55 160.775 1313.01 171.804 1304.64 177.042 1296.28 182.28 1285.25 179.743 1280.01 171.375 1274.77 163.007 1277.31 151.977 1285.68 146.739Z" stroke="#000000" stroke-width="6.875" stroke-miterlimit="8" fill="#1763A9" fill-rule="evenodd"/><path d="M1303.19 174.711 1322.88 206.18" stroke="#000000" stroke-width="6.875" stroke-miterlimit="8" fill="none" fill-rule="evenodd"/><path d="M1318.97 195.563C1328.31 192.344 1338.48 197.3 1341.7 206.633 1344.92 215.966 1339.96 226.141 1330.63 229.359 1321.3 232.578 1311.12 227.622 1307.9 218.289 1304.68 208.956 1309.64 198.781 1318.97 195.563Z" stroke="#000000" stroke-width="6.875" stroke-miterlimit="8" fill="#1763A9" fill-rule="evenodd"/><path d="M1329.73 226.76 1341.84 261.856" stroke="#000000" stroke-width="6.875" stroke-miterlimit="8" fill="none" fill-rule="evenodd"/><path d="M1341 245.5C1350.66 245.5 1358.5 253.335 1358.5 263 1358.5 272.665 1350.66 280.5 1341 280.5 1331.33 280.5 1323.5 272.665 1323.5 263 1323.5 253.335 1331.33 245.5 1341 245.5Z" stroke="#000000" stroke-width="6.875" stroke-miterlimit="8" fill="#1763A9" fill-rule="evenodd"/><path d="M1340.5 278.5 1340.5 315.625" stroke="#000000" stroke-width="6.875" stroke-miterlimit="8" fill="none" fill-rule="evenodd"/><path d="M1351.21 303.158C1358.63 309.659 1359.39 320.952 1352.88 328.381 1346.38 335.81 1335.09 336.561 1327.66 330.059 1320.23 323.557 1319.48 312.265 1325.98 304.836 1332.48 297.407 1343.78 296.656 1351.21 303.158Z" stroke="#000000" stroke-width="6.875" stroke-miterlimit="8" fill="#1763A9" fill-rule="evenodd"/><path d="M1329.47 327.99 1305.02 355.926" stroke="#000000" stroke-width="6.875" stroke-miterlimit="8" fill="none" fill-rule="evenodd"/><path d="M1321.1 347.58C1324.54 356.834 1319.83 367.123 1310.57 370.561 1301.32 374 1291.03 369.285 1287.59 360.031 1284.15 350.777 1288.87 340.488 1298.12 337.05 1307.38 333.611 1317.67 338.326 1321.1 347.58Z" stroke="#000000" stroke-width="6.875" stroke-miterlimit="8" fill="#1763A9" fill-rule="evenodd"/><path d="M1290.17 359.073 1255.37 372.003" stroke="#000000" stroke-width="6.875" stroke-miterlimit="8" fill="none" fill-rule="evenodd"/><path d="M1271.07 366.111C1273.29 375.73 1267.29 385.328 1257.67 387.549 1248.05 389.77 1238.46 383.773 1236.23 374.154 1234.01 364.535 1240.01 354.937 1249.63 352.716 1259.25 350.495 1268.85 356.492 1271.07 366.111Z" stroke="#000000" stroke-width="6.875" stroke-miterlimit="8" fill="#1763A9" fill-rule="evenodd"/><path d="M1238.91 373.535 1202.74 381.887" stroke="#000000" stroke-width="6.875" stroke-miterlimit="8" fill="none" fill-rule="evenodd"/><path d="M1181.5 383.5C1181.5 373.559 1189.56 365.5 1199.5 365.5 1209.44 365.5 1217.5 373.559 1217.5 383.5 1217.5 393.441 1209.44 401.5 1199.5 401.5 1189.56 401.5 1181.5 393.441 1181.5 383.5Z" stroke="#000000" stroke-width="6.875" stroke-miterlimit="8" fill="#1763A9" fill-rule="evenodd"/><path d="M1043.5 125.5C1043.5 115.559 1051.56 107.5 1061.5 107.5 1071.44 107.5 1079.5 115.559 1079.5 125.5 1079.5 135.441 1071.44 143.5 1061.5 143.5 1051.56 143.5 1043.5 135.441 1043.5 125.5Z" stroke="#000000" stroke-width="6.875" stroke-miterlimit="8" fill="#1763A9" fill-rule="evenodd"/><path d="M1076.5 125.5 1113.63 125.5" stroke="#000000" stroke-width="6.875" stroke-miterlimit="8" fill="none" fill-rule="evenodd"/><path d="M575.5 197.5C575.5 187.559 583.559 179.5 593.5 179.5 603.441 179.5 611.5 187.559 611.5 197.5 611.5 207.441 603.441 215.5 593.5 215.5 583.559 215.5 575.5 207.441 575.5 197.5Z" stroke="#000000" stroke-width="6.875" stroke-miterlimit="8" fill="#D10505" fill-rule="evenodd"/><path d="M608.5 197.5 645.625 197.501" stroke="#000000" stroke-width="6.875" stroke-miterlimit="8" fill="none" fill-rule="evenodd"/><path d="M639.5 197.5C639.5 187.559 647.559 179.5 657.5 179.5 667.441 179.5 675.5 187.559 675.5 197.5 675.5 207.441 667.441 215.5 657.5 215.5 647.559 215.5 639.5 207.441 639.5 197.5Z" stroke="#000000" stroke-width="6.875" stroke-miterlimit="8" fill="#D10505" fill-rule="evenodd"/><path d="M672.5 197.5 709.625 197.501" stroke="#000000" stroke-width="6.875" stroke-miterlimit="8" fill="none" fill-rule="evenodd"/><path d="M700.5 197.5C700.5 187.559 708.559 179.5 718.5 179.5 728.441 179.5 736.5 187.559 736.5 197.5 736.5 207.441 728.441 215.5 718.5 215.5 708.559 215.5 700.5 207.441 700.5 197.5Z" stroke="#000000" stroke-width="6.875" stroke-miterlimit="8" fill="#D10505" fill-rule="evenodd"/><path d="M733.5 197.5 770.625 197.501" stroke="#000000" stroke-width="6.875" stroke-miterlimit="8" fill="none" fill-rule="evenodd"/><path d="M758.5 200C758.5 190.335 766.335 182.5 776 182.5 785.665 182.5 793.5 190.335 793.5 200 793.5 209.665 785.665 217.5 776 217.5 766.335 217.5 758.5 209.665 758.5 200Z" stroke="#000000" stroke-width="6.875" stroke-miterlimit="8" fill="#D10505" fill-rule="evenodd"/><path d="M791.5 199.5 828.625 199.5" stroke="#000000" stroke-width="6.875" stroke-miterlimit="8" fill="none" fill-rule="evenodd"/><path d="M818.5 198.5C818.5 188.559 826.559 180.5 836.5 180.5 846.441 180.5 854.5 188.559 854.5 198.5 854.5 208.441 846.441 216.5 836.5 216.5 826.559 216.5 818.5 208.441 818.5 198.5Z" stroke="#000000" stroke-width="6.875" stroke-miterlimit="8" fill="#D10505" fill-rule="evenodd"/><path d="M851.5 198.5 888.625 198.5" stroke="#000000" stroke-width="6.875" stroke-miterlimit="8" fill="none" fill-rule="evenodd"/><path d="M873.5 201.5C873.5 191.559 881.559 183.5 891.5 183.5 901.441 183.5 909.5 191.559 909.5 201.5 909.5 211.441 901.441 219.5 891.5 219.5 881.559 219.5 873.5 211.441 873.5 201.5Z" stroke="#000000" stroke-width="6.875" stroke-miterlimit="8" fill="#D10505" fill-rule="evenodd"/><path d="M906.5 201.5 943.625 201.5" stroke="#000000" stroke-width="6.875" stroke-miterlimit="8" fill="none" fill-rule="evenodd"/><path d="M928.5 201.5C928.5 191.559 936.559 183.5 946.5 183.5 956.441 183.5 964.5 191.559 964.5 201.5 964.5 211.441 956.441 219.5 946.5 219.5 936.559 219.5 928.5 211.441 928.5 201.5Z" stroke="#000000" stroke-width="6.875" stroke-miterlimit="8" fill="#D10505" fill-rule="evenodd"/><path d="M961.5 201.5 998.625 201.5" stroke="#000000" stroke-width="6.875" stroke-miterlimit="8" fill="none" fill-rule="evenodd"/><path d="M985.5 201.5C985.5 191.559 993.335 183.5 1003 183.5 1012.67 183.5 1020.5 191.559 1020.5 201.5 1020.5 211.441 1012.67 219.5 1003 219.5 993.335 219.5 985.5 211.441 985.5 201.5Z" stroke="#000000" stroke-width="6.875" stroke-miterlimit="8" fill="#D10505" fill-rule="evenodd"/><path d="M1018.5 201.5 1055.62 201.5" stroke="#000000" stroke-width="6.875" stroke-miterlimit="8" fill="none" fill-rule="evenodd"/><path d="M1037.5 201.5C1037.5 191.559 1045.56 183.5 1055.5 183.5 1065.44 183.5 1073.5 191.559 1073.5 201.5 1073.5 211.441 1065.44 219.5 1055.5 219.5 1045.56 219.5 1037.5 211.441 1037.5 201.5Z" stroke="#000000" stroke-width="6.875" stroke-miterlimit="8" fill="#D10505" fill-rule="evenodd"/><path d="M1070.5 201.5 1107.62 201.5" stroke="#000000" stroke-width="6.875" stroke-miterlimit="8" fill="none" fill-rule="evenodd"/><path d="M1092.5 202.5C1092.5 192.559 1100.56 184.5 1110.5 184.5 1120.44 184.5 1128.5 192.559 1128.5 202.5 1128.5 212.441 1120.44 220.5 1110.5 220.5 1100.56 220.5 1092.5 212.441 1092.5 202.5Z" stroke="#000000" stroke-width="6.875" stroke-miterlimit="8" fill="#D10505" fill-rule="evenodd"/><path d="M1125.5 202.5 1162.62 202.5" stroke="#000000" stroke-width="6.875" stroke-miterlimit="8" fill="none" fill-rule="evenodd"/><path d="M506.5 200C506.5 190.335 514.559 182.5 524.5 182.5 534.441 182.5 542.5 190.335 542.5 200 542.5 209.665 534.441 217.5 524.5 217.5 514.559 217.5 506.5 209.665 506.5 200Z" stroke="#000000" stroke-width="6.875" stroke-miterlimit="8" fill="#D10505" fill-rule="evenodd"/><path d="M539.5 199.5 576.625 199.5" stroke="#000000" stroke-width="6.875" stroke-miterlimit="8" fill="none" fill-rule="evenodd"/><path d="M322.961 259.267C314.615 253.994 312.124 242.953 317.397 234.608 322.67 226.262 333.71 223.771 342.056 229.044 350.402 234.317 352.893 245.357 347.62 253.703 342.347 262.049 331.307 264.54 322.961 259.267Z" stroke="#000000" stroke-width="6.875" stroke-miterlimit="8" fill="#D10505" fill-rule="evenodd"/><path d="M0 0 14.833 21.8495" stroke="#000000" stroke-width="6.875" stroke-miterlimit="8" fill="none" fill-rule="evenodd" transform="matrix(1 0 0 -1 344.5 231.349)"/><path d="M1151.5 201.5C1151.5 191.559 1159.56 183.5 1169.5 183.5 1179.44 183.5 1187.5 191.559 1187.5 201.5 1187.5 211.441 1179.44 219.5 1169.5 219.5 1159.56 219.5 1151.5 211.441 1151.5 201.5Z" stroke="#000000" stroke-width="6.875" stroke-miterlimit="8" fill="#D10505" fill-rule="evenodd"/><path d="M1184.5 201.5 1221.63 201.5" stroke="#000000" stroke-width="6.875" stroke-miterlimit="8" fill="none" fill-rule="evenodd"/><path d="M1209.18 189.862C1216.5 183.242 1227.81 183.814 1234.42 191.138 1241.04 198.462 1240.47 209.765 1233.15 216.385 1225.82 223.004 1214.52 222.433 1207.9 215.109 1201.28 207.785 1201.85 196.481 1209.18 189.862Z" stroke="#000000" stroke-width="6.875" stroke-miterlimit="8" fill="#D10505" fill-rule="evenodd"/><path d="M1231.3 214.344 1256.2 241.887" stroke="#000000" stroke-width="6.875" stroke-miterlimit="8" fill="none" fill-rule="evenodd"/><path d="M1267.16 233.811C1276.44 237.194 1281.21 247.455 1277.83 256.729 1274.45 266.003 1264.18 270.779 1254.91 267.396 1245.64 264.013 1240.86 253.753 1244.24 244.478 1247.63 235.204 1257.89 230.428 1267.16 233.811Z" stroke="#000000" stroke-width="6.875" stroke-miterlimit="8" fill="#D10505" fill-rule="evenodd"/><path d="M1255.85 264.813 1243.13 299.69" stroke="#000000" stroke-width="6.875" stroke-miterlimit="8" fill="none" fill-rule="evenodd"/><path d="M0 0 24.6796 0.000360892" stroke="#000000" stroke-width="6.875" stroke-miterlimit="8" fill="none" fill-rule="evenodd" transform="matrix(-1 0 0 1 913.18 304.5)"/><path d="M1260.92 292.448C1264.4 301.688 1259.72 311.996 1250.48 315.471 1241.24 318.947 1230.94 314.273 1227.46 305.033 1223.99 295.793 1228.66 285.485 1237.9 282.01 1247.14 278.534 1257.45 283.208 1260.92 292.448Z" stroke="#000000" stroke-width="6.875" stroke-miterlimit="8" fill="#D10505" fill-rule="evenodd"/><path d="M1227.28 302.234 1192.54 315.303" stroke="#000000" stroke-width="6.875" stroke-miterlimit="8" fill="none" fill-rule="evenodd"/><path d="M1211.58 314.482C1210.4 324.283 1201.5 331.272 1191.7 330.093 1181.9 328.913 1174.91 320.011 1176.09 310.21 1177.27 300.408 1186.17 293.419 1195.97 294.599 1205.77 295.779 1212.76 304.681 1211.58 314.482Z" stroke="#000000" stroke-width="6.875" stroke-miterlimit="8" fill="#D10505" fill-rule="evenodd"/><path d="M1178.82 310.538 1141.96 306.102" stroke="#000000" stroke-width="6.875" stroke-miterlimit="8" fill="none" fill-rule="evenodd"/><path d="M429.5 200C429.5 190.335 437.559 182.5 447.5 182.5 457.441 182.5 465.5 190.335 465.5 200 465.5 209.665 457.441 217.5 447.5 217.5 437.559 217.5 429.5 209.665 429.5 200Z" stroke="#000000" stroke-width="6.875" stroke-miterlimit="8" fill="#D10505" fill-rule="evenodd"/><path d="M462.5 199.5 506.958 199.5" stroke="#000000" stroke-width="6.875" stroke-miterlimit="8" fill="none" fill-rule="evenodd"/><path d="M356.5 201.5C356.5 191.559 364.559 183.5 374.5 183.5 384.441 183.5 392.5 191.559 392.5 201.5 392.5 211.441 384.441 219.5 374.5 219.5 364.559 219.5 356.5 211.441 356.5 201.5Z" stroke="#000000" stroke-width="6.875" stroke-miterlimit="8" fill="#D10505" fill-rule="evenodd"/><path d="M389.5 201.5 426.625 201.5" stroke="#000000" stroke-width="6.875" stroke-miterlimit="8" fill="none" fill-rule="evenodd"/><path d="M351.128 317.118C341.334 318.357 332.39 311.421 331.151 301.627 329.913 291.833 336.849 282.889 346.643 281.651 356.437 280.412 365.38 287.348 366.619 297.142 367.857 306.936 360.922 315.88 351.128 317.118Z" stroke="#000000" stroke-width="6.875" stroke-miterlimit="8" fill="#D10505" fill-rule="evenodd"/><path d="M343.337 284.453 335.5 262.5" stroke="#000000" stroke-width="6.875" stroke-miterlimit="8" fill="none" fill-rule="evenodd"/><path d="M426.155 305.211C423.327 314.67 413.367 320.044 403.909 317.216 394.45 314.388 389.076 304.427 391.904 294.969 394.732 285.511 404.693 280.136 414.151 282.965 423.609 285.793 428.984 295.753 426.155 305.211Z" stroke="#000000" stroke-width="6.875" stroke-miterlimit="8" fill="#D10505" fill-rule="evenodd"/><path d="M390.78 299.379 367.5 298.5" stroke="#000000" stroke-width="6.875" stroke-miterlimit="8" fill="none" fill-rule="evenodd"/><path d="M489.844 301.655C489.05 311.495 480.429 318.828 470.589 318.033 460.749 317.239 453.416 308.618 454.21 298.778 455.005 288.938 463.626 281.605 473.466 282.399 483.306 283.194 490.639 291.815 489.844 301.655Z" stroke="#000000" stroke-width="6.875" stroke-miterlimit="8" fill="#D10505" fill-rule="evenodd"/><path d="M0 0 28.3033 0.000360892" stroke="#000000" stroke-width="6.875" stroke-miterlimit="8" fill="none" fill-rule="evenodd" transform="matrix(-1 0 0 1 455.803 298.5)"/><path d="M609.961 301.673C609.29 311.523 600.762 318.963 590.913 318.293 581.064 317.622 573.623 309.094 574.293 299.245 574.964 289.396 583.492 281.955 593.341 282.625 603.19 283.296 610.631 291.824 609.961 301.673Z" stroke="#000000" stroke-width="6.875" stroke-miterlimit="8" fill="#D10505" fill-rule="evenodd"/><path d="M0 0 28.3355 0.000360892" stroke="#000000" stroke-width="6.875" stroke-miterlimit="8" fill="none" fill-rule="evenodd" transform="matrix(-1 0 0 1 576.836 299.5)"/><path d="M549.5 298.5C549.5 308.441 541.441 316.5 531.5 316.5 521.559 316.5 513.5 308.441 513.5 298.5 513.5 288.559 521.559 280.5 531.5 280.5 541.441 280.5 549.5 288.559 549.5 298.5Z" stroke="#000000" stroke-width="6.875" stroke-miterlimit="8" fill="#D10505" fill-rule="evenodd"/><path d="M0 0 25.667 0.000360892" stroke="#000000" stroke-width="6.875" stroke-miterlimit="8" fill="none" fill-rule="evenodd" transform="matrix(-1 0 0 1 515.167 299.5)"/><path d="M1160 309.712C1159.52 319.572 1151.13 327.175 1141.27 326.693 1131.41 326.211 1123.81 317.826 1124.29 307.966 1124.77 298.106 1133.16 290.503 1143.02 290.985 1152.88 291.468 1160.48 299.852 1160 309.712Z" stroke="#000000" stroke-width="6.875" stroke-miterlimit="8" fill="#D10505" fill-rule="evenodd"/><path d="M1127.04 308.1 1089.96 306.287" stroke="#000000" stroke-width="6.875" stroke-miterlimit="8" fill="none" fill-rule="evenodd"/><path d="M1106.48 306.852C1107.96 316.612 1101.25 325.727 1091.49 327.212 1081.73 328.697 1072.62 321.988 1071.13 312.228 1069.65 302.469 1076.36 293.353 1086.12 291.869 1095.88 290.384 1104.99 297.092 1106.48 306.852Z" stroke="#000000" stroke-width="6.875" stroke-miterlimit="8" fill="#D10505" fill-rule="evenodd"/><path d="M0 0 32.5175 0.000360892" stroke="#000000" stroke-width="6.875" stroke-miterlimit="8" fill="none" fill-rule="evenodd" transform="matrix(-1 0 0 1 1073.02 309.5)"/><path d="M1056.5 308C1056.5 317.665 1048.44 325.5 1038.5 325.5 1028.56 325.5 1020.5 317.665 1020.5 308 1020.5 298.335 1028.56 290.5 1038.5 290.5 1048.44 290.5 1056.5 298.335 1056.5 308Z" stroke="#000000" stroke-width="6.875" stroke-miterlimit="8" fill="#D10505" fill-rule="evenodd"/><path d="M1022.63 308.5 985.5 308.499" stroke="#000000" stroke-width="6.875" stroke-miterlimit="8" fill="none" fill-rule="evenodd"/><path d="M1001.5 306.5C1001.5 316.441 993.665 324.5 984 324.5 974.335 324.5 966.5 316.441 966.5 306.5 966.5 296.559 974.335 288.5 984 288.5 993.665 288.5 1001.5 296.559 1001.5 306.5Z" stroke="#000000" stroke-width="6.875" stroke-miterlimit="8" fill="#D10505" fill-rule="evenodd"/><path d="M968.625 306.5 931.5 306.5" stroke="#000000" stroke-width="6.875" stroke-miterlimit="8" fill="none" fill-rule="evenodd"/><path d="M897.599 305.513C896.364 315.308 887.422 322.246 877.627 321.01 867.833 319.775 860.895 310.833 862.13 301.039 863.366 291.244 872.307 284.306 882.102 285.541 891.896 286.777 898.835 295.719 897.599 305.513Z" stroke="#000000" stroke-width="6.875" stroke-miterlimit="8" fill="#D10505" fill-rule="evenodd"/><path d="M935.656 288.3C945.074 291.259 950.31 301.293 947.35 310.711 944.39 320.129 934.356 325.365 924.938 322.405 915.52 319.446 910.285 309.412 913.244 299.994 916.204 290.576 926.238 285.34 935.656 288.3Z" stroke="#000000" stroke-width="6.875" stroke-miterlimit="8" fill="#D10505" fill-rule="evenodd"/></g></svg>