<svg width="1701" height="247" xmlns="http://www.w3.org/2000/svg" xmlns:xlink="http://www.w3.org/1999/xlink" xml:space="preserve" overflow="hidden"><g transform="translate(-2035 -1182)"><rect x="2038.5" y="1361.5" width="1694" height="63.9999" stroke="#000000" stroke-width="6.875" stroke-miterlimit="8" fill="#D1D1D1"/><path d="M2755.5 1361.5 2755.5 1241.5 2794.5 1202.5 2833.5 1241.5 2833.5 1361.5Z" stroke="#000000" stroke-width="6.875" stroke-miterlimit="8" fill="#FFFF00" fill-rule="evenodd"/><path d="M2091.5 1361.5 2091.5 1263.58 2091.5 1257.51 2091.5 1249.54C2091.5 1241.79 2109.18 1235.5 2131 1235.5 2152.82 1235.5 2170.5 1241.79 2170.5 1249.54L2170.5 1257.51 2170.5 1263.58 2170.5 1361.5Z" stroke="#000000" stroke-width="6.875" stroke-miterlimit="8" fill="#00B0F0" fill-rule="evenodd"/><path d="M2926.5 1360.5 2926.5 1267.3 2926.5 1216.78 2926.5 1189.5C2926.5 1198.1 2944.64 1205.06 2967 1205.06 2989.36 1205.06 3007.5 1198.1 3007.5 1189.5L3007.5 1216.78 3007.5 1267.3 3007.5 1360.5Z" stroke="#000000" stroke-width="6.875" stroke-miterlimit="8" fill="#FF0000" fill-rule="evenodd"/><path d="M2423.5 1361.5 2423.5 1199.5 2425.32 1199.5 2464.5 1235.95 2503.68 1199.5 2505.5 1199.5 2505.5 1361.5Z" stroke="#000000" stroke-width="6.875" stroke-miterlimit="8" fill="#92D050" fill-rule="evenodd"/><path d="M2260.5 1361.5 2260.5 1262.03 2260.5 1255.86 2260.5 1247.77C2260.5 1239.89 2277.96 1233.5 2299.5 1233.5 2321.04 1233.5 2338.5 1239.89 2338.5 1247.77L2338.5 1255.86 2338.5 1262.03 2338.5 1361.5Z" stroke="#000000" stroke-width="6.875" stroke-miterlimit="8" fill="#00B0F0" fill-rule="evenodd"/><path d="M2591.5 1359.5 2591.5 1260.81 2591.5 1254.69 2591.5 1246.65C2591.5 1238.84 2609.18 1232.5 2631 1232.5 2652.82 1232.5 2670.5 1238.84 2670.5 1246.65L2670.5 1254.69 2670.5 1260.81 2670.5 1359.5Z" stroke="#000000" stroke-width="6.875" stroke-miterlimit="8" fill="#00B0F0" fill-rule="evenodd"/><path d="M3090.5 1361.5 3090.5 1234 3130 1194.5 3169.5 1234 3169.5 1361.5Z" stroke="#000000" stroke-width="6.875" stroke-miterlimit="8" fill="#FFFF00" fill-rule="evenodd"/><path d="M3435.5 1361.5 3435.5 1203.5 3437.32 1203.5 3476.5 1239.05 3515.68 1203.5 3517.5 1203.5 3517.5 1361.5Z" stroke="#000000" stroke-width="6.875" stroke-miterlimit="8" fill="#92D050" fill-rule="evenodd"/><path d="M3255.5 1360.5 3255.5 1203.5 3257.32 1203.5 3296.5 1238.82 3335.68 1203.5 3337.5 1203.5 3337.5 1360.5Z" stroke="#000000" stroke-width="6.875" stroke-miterlimit="8" fill="#92D050" fill-rule="evenodd"/><path d="M3611.5 1361.5 3611.5 1265.58 3611.5 1213.57 3611.5 1185.5C3611.5 1194.35 3629.64 1201.52 3652 1201.52 3674.36 1201.52 3692.5 1194.35 3692.5 1185.5L3692.5 1213.57 3692.5 1265.58 3692.5 1361.5Z" stroke="#000000" stroke-width="6.875" stroke-miterlimit="8" fill="#FF0000" fill-rule="evenodd"/><text font-family="Arial,Arial_MSFontService,sans-serif" font-weight="400" font-size="64" transform="matrix(1 0 0 1 2277.92 1321)">A</text><text font-family="Arial,Arial_MSFontService,sans-serif" font-weight="400" font-size="64" transform="matrix(1 0 0 1 3452.07 1317)">G</text><text font-family="Arial,Arial_MSFontService,sans-serif" font-weight="400" font-size="64" transform="matrix(1 0 0 1 3629.31 1314)">U</text><text font-family="Arial,Arial_MSFontService,sans-serif" font-weight="400" font-size="64" transform="matrix(1 0 0 1 3107.04 1309)">C</text><text font-family="Arial,Arial_MSFontService,sans-serif" font-weight="400" font-size="64" transform="matrix(1 0 0 1 2108.33 1319)">A</text><text font-family="Arial,Arial_MSFontService,sans-serif" font-weight="400" font-size="64" transform="matrix(1 0 0 1 2609.75 1315)">A</text><text font-family="Arial,Arial_MSFontService,sans-serif" font-weight="400" font-size="64" transform="matrix(1 0 0 1 2943.87 1315)">U</text><text font-family="Arial,Arial_MSFontService,sans-serif" font-weight="400" font-size="64" transform="matrix(1 0 0 1 2772 1316)">C</text><text font-family="Arial,Arial_MSFontService,sans-serif" font-weight="400" font-size="64" transform="matrix(1 0 0 1 3269.2 1319)">G</text><text font-family="Arial,Arial_MSFontService,sans-serif" font-weight="400" font-size="64" transform="matrix(1 0 0 1 2437.19 1315)">G</text></g></svg>