<svg width="1133" height="834" xmlns="http://www.w3.org/2000/svg" xmlns:xlink="http://www.w3.org/1999/xlink" xml:space="preserve" overflow="hidden"><g transform="translate(-2843 -426)"><path d="M3280.5 534.5 3281.75 673.49" stroke="#000000" stroke-width="6.875" stroke-miterlimit="8" fill="none" fill-rule="evenodd"/><path d="M0 0 63.8 155.605" stroke="#000000" stroke-width="6.875" stroke-miterlimit="8" fill="none" fill-rule="evenodd" transform="matrix(-1 0 0 1 3500.3 969.5)"/><path d="M0 0 142.33 93.9555" stroke="#000000" stroke-width="6.875" stroke-miterlimit="8" fill="none" fill-rule="evenodd" transform="matrix(-1 0 0 1 3860.83 700.5)"/><path d="M3280.5 667.5 3428.08 764.971" stroke="#000000" stroke-width="6.875" stroke-miterlimit="8" fill="none" fill-rule="evenodd"/><path d="M0 0 142.33 93.9555" stroke="#000000" stroke-width="6.875" stroke-miterlimit="8" fill="none" fill-rule="evenodd" transform="matrix(-1 0 0 1 3870.83 724.5)"/><text font-family="Aptos,Aptos_MSFontService,sans-serif" font-weight="400" font-size="83" transform="matrix(1 0 0 1 3865.77 726)">O</text><path d="M3721.5 971.5 3785.3 1127.1" stroke="#000000" stroke-width="6.875" stroke-miterlimit="8" fill="none" fill-rule="evenodd"/><text font-family="Aptos,Aptos_MSFontService,sans-serif" font-weight="400" font-size="83" transform="matrix(1 0 0 1 3773.79 1183)">OH</text><text font-family="Aptos,Aptos_MSFontService,sans-serif" font-weight="400" font-size="83" transform="matrix(1 0 0 1 3336.6 1187)">HO</text><path d="M0 0 127.538 83.6278" stroke="#000000" stroke-width="6.875" stroke-miterlimit="8" fill="none" fill-rule="evenodd" transform="matrix(1 0 0 -1 3157.5 751.128)"/><path d="M3016.5 689.5 3160.1 749.846" stroke="#000000" stroke-width="6.875" stroke-miterlimit="8" fill="none" fill-rule="evenodd"/><text font-family="Aptos,Aptos_MSFontService,sans-serif" font-weight="400" font-size="83" transform="matrix(1 0 0 1 3397.35 597)">H</text><text font-family="Aptos,Aptos_MSFontService,sans-serif" font-weight="400" font-size="83" transform="matrix(1 0 0 1 2893.49 706)">HO</text><text font-family="Aptos,Aptos_MSFontService,sans-serif" font-weight="400" font-size="83" transform="matrix(1 0 0 1 3195.63 527)">HO</text><path d="M3429.5 763.222 3609 634.5 3788.5 763.222 3719.94 971.499 3498.06 971.499Z" stroke="#000000" stroke-width="6.875" stroke-miterlimit="8" fill="#FFFFFF" fill-rule="evenodd"/><rect x="3577.5" y="578.5" width="61.0002" height="138" stroke="#FFFFFF" stroke-width="6.875" stroke-miterlimit="8" fill="#FFFFFF"/><text font-family="Aptos,Aptos_MSFontService,sans-serif" font-weight="400" font-size="83" transform="matrix(1 0 0 1 3579.15 678)">O</text><path d="M3501.5 948.5 3716.44 948.5" stroke="#000000" stroke-width="6.875" stroke-miterlimit="8" fill="none" fill-rule="evenodd"/></g></svg>